<svg id="_x33_0" enable-background="new 0 0 64 64" height="512" viewBox="0 0 64 64" width="512" xmlns="http://www.w3.org/2000/svg"><g><g><g><path d="m60.42 23c-1.62 0-3.07-.97-3.69-2.47-.01-.02-.02-.03-.02-.05-.63-1.5-.3-3.23.85-4.38l1.12-1.12-5.66-5.66-1.12 1.12c-1.15 1.15-2.88 1.48-4.38.85-.02 0-.03-.01-.05-.02-1.5-.62-2.47-2.07-2.47-3.69v-1.58h-4-4v1.58c0 1.62-.97 3.07-2.47 3.69-.02.01-.03.02-.05.02-1.5.63-3.23.3-4.38-.85l-1.12-1.12-5.66 5.66 1.12 1.12c1.15 1.15 1.48 2.88.85 4.38 0 .02-.01.03-.02.05-.62 1.5-2.07 2.47-3.69 2.47h-1.54-.04-1v4h9c0-7.18 5.82-13 13-13s13 5.82 13 13h4v2h3c.55 0 1 .45 1 1v-7z" fill="#ffc729"/></g><g><path d="m54 27h-4c0-4.97-4.03-9-9-9s-9 4.03-9 9h-4c0-7.18 5.82-13 13-13s13 5.82 13 13z" fill="#fcd770"/></g><g><path d="m62 30v24c0 .55-.45 1-1 1h-20l-.11.21c-.54 1.1-1.66 1.79-2.89 1.79s-2.35-.69-2.89-1.79l-.11-.21h-18.5l1.67-4h15c1.81 0 3.55.72 4.83 2 1.28-1.28 3.02-2 4.83-2h15.17v-12-10h3c.55 0 1 .45 1 1z" fill="#5cd6b3"/></g><g><path d="m42.83 27c-1.81 0-3.55.72-4.83 2-1.28-1.28-3.02-2-4.83-2h-14.17v20 2l-.83 2h15c1.81 0 3.55.72 4.83 2 1.28-1.28 3.02-2 4.83-2h15.17v-24z" fill="#e6e9ed"/></g><g><path d="m19 39h15v8h-15z" fill="#ff826e"/></g><g><path d="m24 7v2c0 .55-.45 1-1 1h-1-3v-4h4c.55 0 1 .45 1 1z" fill="#969faa"/></g><g><path d="m22 10-1.22 6.09c-.1-.19-.22-.35-.37-.5-.36-.37-.86-.59-1.41-.59v-5z" fill="#aab2bd"/></g><g><path d="m21 17v5c0 .54-.43.98-.96 1h-.04-1-1c-.55 0-1-.45-1-1v-2-3c0-1.1.9-2 2-2 .55 0 1.05.22 1.41.59.15.15.27.31.37.5.14.27.22.58.22.91z" fill="#ff826e"/></g><g><path d="m19 47v2h-6v-29h4v2c0 .55.45 1 1 1h1v4 4 4 4z" fill="#4fc1e9"/></g><g><path d="m19 10v5c-1.1 0-2 .9-2 2v3h-4-4.54c-.47 0-.92-.11-1.31-.3-.82-.4-1.44-1.17-1.63-2.11l-1.52-7.59z" fill="#aab2bd"/></g><g><path d="m19 6v4h-15-1c-.55 0-1-.45-1-1v-2c0-.55.45-1 1-1h10z" fill="#969faa"/></g><g><path d="m18.17 51-1.67 4h-7l-2.5-6h6 6z" fill="#ccd1d9"/></g><g><path d="m16.5 55-2.12 5.08c-.23.56-.77.92-1.38.92s-1.15-.36-1.38-.92l-2.12-5.08z" fill="#ccd1d9"/></g><g><path d="m13 20v29h-6v-29l.15-.3c.39.19.84.3 1.31.3z" fill="#fcd770"/></g></g><g><path d="m53 46h2v2h-2z"/><path d="m49 46h2v2h-2z"/><path d="m45 46h2v2h-2z"/><path d="m41 42h10v2h-10z"/><path d="m41 38h14v2h-14z"/><path d="m41 34h14v2h-14z"/><path d="m41 30h4v2h-4z"/><path d="m47 30h8v2h-8z"/><path d="m33 34h2v2h-2z"/><path d="m60.423 22c-1.218 0-2.307-.728-2.795-1.904-.475-1.135-.222-2.427.642-3.292l1.825-1.823-7.075-7.075-1.824 1.823c-.864.865-2.156 1.118-3.344.621-1.125-.465-1.852-1.554-1.852-2.773v-2.577h-10v2.577c0 1.219-.727 2.308-1.905 2.795-1.134.475-2.427.224-3.292-.643l-1.823-1.823-6.927 6.926.767-3.832h.18c1.103 0 2-.897 2-2v-2c0-1.103-.897-2-2-2h-3c0-2.206-1.794-4-4-4s-4 1.794-4 4h-9c-1.103 0-2 .897-2 2v2c0 1.103.897 2 2 2h.18l1.357 6.784c.193.963.73 1.784 1.463 2.358v29.058l4.692 11.262c.39.934 1.296 1.538 2.308 1.538s1.918-.604 2.308-1.538l1.859-4.462h17.235c.769 1.243 2.115 2 3.598 2s2.829-.757 3.598-2h19.402c1.103 0 2-.897 2-2v-32zm-31.443-11.266.41.409c1.439 1.439 3.589 1.863 5.522 1.055 1.876-.776 3.088-2.59 3.088-4.621v-.577h6v.577c0 2.031 1.212 3.845 3.133 4.641 1.888.787 4.037.367 5.477-1.074l.41-.409 4.246 4.246-.41.409c-1.44 1.44-1.862 3.591-1.054 5.523.777 1.875 2.591 3.087 4.621 3.087h.577v4h-2v-2h-4.051c-.516-7.253-6.567-13-13.949-13s-13.433 5.747-13.949 13h-7.051v-2h1.577c2.03 0 3.844-1.212 4.641-3.133.788-1.887.367-4.037-1.074-5.478l-.41-.409zm-20.48 39.266h9l-1.667 4h-5.667zm7.5-29v1c0 1.103.897 2 2 2v24h-4v-27zm3-5c.551 0 1 .448 1 1l.001 5h-.001-2v-5c0-.552.449-1 1-1zm1 24h13v6h-13zm0 9.2v-1.2h15v-10h-15v-2h11v-2h-11v-2h15v-2h-15v-2h13.171c1.424 0 2.767.513 3.829 1.441v21.564c-1.157-.651-2.464-1.005-3.829-1.005h-13.504zm18-21.535c-1.373-1.079-3.056-1.665-4.829-1.665h-.102c.495-3.94 3.859-7 7.931-7s7.436 3.06 7.931 7h-6.102c-1.773 0-3.456.586-4.829 1.665zm12.949-1.665c-.503-5.046-4.773-9-9.949-9s-9.446 3.954-9.949 9h-2c.511-6.15 5.67-11 11.949-11s11.438 4.85 11.949 11zm-11.949 3.441c1.062-.928 2.405-1.441 3.829-1.441h14.171v22h-14.171c-1.364 0-2.671.354-3.829 1.005zm-15.27-12.637c.864.865 1.117 2.157.621 3.344-.411.993-1.308 1.674-2.351 1.821v-4.969c0-.349-.071-.68-.182-.992l.186-.929zm-3.595-2.578c-.043-.018-.091-.026-.135-.042v-3.184h.78zm2.865-7.226.001 2h-3.001v-2zm-7-4c1.103 0 2 .897 2 2h-4c0-1.103.897-2 2-2zm-13 4h15v2h-15zm2.22 4h12.78v3.184c-1.161.414-2 1.514-2 2.816v2h-7.541c-.95 0-1.775-.677-1.961-1.608zm3.239 10h3.541v27h-4v-27.041c.152.018.303.041.459.041zm5.003 38.692c-.156.373-.768.373-.924 0l-1.538-3.692h4zm47.538-5.692h-20.618l-.382.764c-.381.762-1.147 1.236-2 1.236s-1.619-.474-2-1.236l-.382-.764h-17.618l.833-2h14.338c1.557 0 3.021.606 4.122 1.707l.707.707.707-.707c1.101-1.101 2.565-1.707 4.122-1.707h16.171v-22h2z"/><circle cx="41" cy="10" r="1"/><path d="m28.979 15.979c.256 0 .512-.098.707-.293.391-.391.391-1.024 0-1.414-.195-.195-.451-.293-.707-.293s-.512.098-.707.293c-.391.391-.391 1.024 0 1.414.195.196.451.293.707.293z"/><path d="m53.021 15.979c.256 0 .512-.098.707-.293.391-.391.391-1.024 0-1.414-.195-.195-.451-.293-.707-.293s-.512.098-.707.293c-.391.391-.391 1.024 0 1.414.195.196.451.293.707.293z"/></g></g></svg>