<svg xmlns="http://www.w3.org/2000/svg" height="512pt" version="1.1" viewBox="-62 0 512 512" width="512pt">
<g id="surface1">
<path d="M 7.5 32.167969 L 246.664062 32.167969 L 246.664062 203.695312 L 7.5 203.695312 Z M 7.5 32.167969 " style=" stroke:none;fill-rule:nonzero;fill:rgb(100%,71.372549%,33.333333%);fill-opacity:1;" />
<path d="M 64.730469 57.53125 L 246.664062 57.53125 L 246.664062 178.335938 L 64.730469 178.335938 Z M 64.730469 57.53125 " style=" stroke:none;fill-rule:nonzero;fill:rgb(100%,47.45098%,33.72549%);fill-opacity:1;" />
<path d="M 168.859375 435.496094 C 130.953125 397.59375 109.703125 376.339844 71.796875 338.433594 L 71.796875 504.5 L 260.359375 504.5 L 260.359375 435.496094 Z M 168.859375 435.496094 " style=" stroke:none;fill-rule:nonzero;fill:rgb(100%,85.490196%,66.666667%);fill-opacity:1;" />
<path d="M 34.730469 57.53125 L 219.433594 57.53125 L 219.433594 178.335938 L 34.730469 178.335938 Z M 34.730469 57.53125 " style=" stroke:none;fill-rule:nonzero;fill:rgb(47.058824%,46.27451%,50.196078%);fill-opacity:1;" />
<path d="M 226.363281 7.5 C 195.476562 7.5 166.707031 16.558594 142.5625 32.167969 L 246.664062 32.167969 L 246.664062 203.695312 L 71.796875 203.695312 L 71.796875 338.433594 C 109.703125 376.339844 130.953125 397.59375 168.859375 435.496094 L 380.929688 435.496094 L 380.929688 162.066406 C 380.929688 76.699219 311.726562 7.5 226.363281 7.5 Z M 226.363281 7.5 " style=" stroke:none;fill-rule:nonzero;fill:rgb(100%,85.490196%,66.666667%);fill-opacity:1;" />
<path d="M 241.359375 8.21875 C 236.425781 7.742188 231.421875 7.5 226.363281 7.5 C 195.476562 7.5 166.707031 16.558594 142.5625 32.167969 L 172.5625 32.167969 C 192.75 19.117188 216.171875 10.644531 241.359375 8.21875 Z M 241.359375 8.21875 " style=" stroke:none;fill-rule:nonzero;fill:rgb(100%,58.039216%,47.058824%);fill-opacity:1;" />
<path d="M 246.664062 32.167969 L 276.664062 32.167969 L 276.664062 203.695312 L 246.664062 203.695312 Z M 246.664062 32.167969 " style=" stroke:none;fill-rule:nonzero;fill:rgb(100%,58.039216%,47.058824%);fill-opacity:1;" />
<path d="M 101.796875 338.433594 L 101.796875 203.695312 L 71.796875 203.695312 L 71.796875 338.433594 C 109.703125 376.339844 130.953125 397.589844 168.859375 435.496094 L 198.859375 435.496094 C 160.953125 397.59375 139.703125 376.339844 101.796875 338.433594 Z M 101.796875 338.433594 " style=" stroke:none;fill-rule:nonzero;fill:rgb(100%,58.039216%,47.058824%);fill-opacity:1;" />
<path d="M 7.5 32.167969 L 37.5 32.167969 L 37.5 203.695312 L 7.5 203.695312 Z M 7.5 32.167969 " style=" stroke:none;fill-rule:nonzero;fill:rgb(100%,47.45098%,33.72549%);fill-opacity:1;" />
<path d="M 71.796875 338.433594 L 71.796875 504.5 L 101.796875 504.5 L 101.796875 368.433594 Z M 71.796875 338.433594 " style=" stroke:none;fill-rule:nonzero;fill:rgb(100%,58.039216%,47.058824%);fill-opacity:1;" />
<path d="M 34.730469 57.53125 L 64.730469 57.53125 L 64.730469 178.332031 L 34.730469 178.332031 Z M 34.730469 57.53125 " style=" stroke:none;fill-rule:nonzero;fill:rgb(34.117647%,33.72549%,36.078431%);fill-opacity:1;" />
<path d="M 234.605469 357.5 L 322.742188 357.5 L 322.742188 372.5 L 234.605469 372.5 Z M 234.605469 357.5 " style=" stroke:none;fill-rule:nonzero;fill:rgb(0%,0%,0%);fill-opacity:1;" />
<path d="M 296.175781 233.710938 L 296.175781 311.6875 L 278.675781 311.6875 L 278.675781 326.6875 L 311.175781 326.6875 L 311.175781 233.710938 Z M 296.175781 233.710938 " style=" stroke:none;fill-rule:nonzero;fill:rgb(0%,0%,0%);fill-opacity:1;" />
<path d="M 89.296875 221.496094 L 104.296875 221.496094 L 104.296875 305.332031 L 89.296875 305.332031 Z M 89.296875 221.496094 " style=" stroke:none;fill-rule:nonzero;fill:rgb(0%,0%,0%);fill-opacity:1;" />
<path d="M 226.933594 50.027344 L 27.230469 50.027344 L 27.230469 185.832031 L 226.933594 185.832031 Z M 211.933594 170.832031 L 42.230469 170.832031 L 42.230469 65.027344 L 211.933594 65.027344 Z M 211.933594 170.832031 " style=" stroke:none;fill-rule:nonzero;fill:rgb(0%,0%,0%);fill-opacity:1;" />
<path d="M 254.164062 24.667969 L 145.582031 24.667969 L 145.582031 21.167969 C 145.582031 10.964844 137.285156 2.667969 127.082031 2.667969 C 116.882812 2.667969 108.582031 10.964844 108.582031 21.167969 L 108.582031 24.667969 L 0 24.667969 L 0 211.195312 L 254.167969 211.195312 L 254.167969 24.667969 Z M 123.582031 21.167969 C 123.582031 19.238281 125.152344 17.667969 127.082031 17.667969 C 129.011719 17.667969 130.582031 19.238281 130.582031 21.167969 L 130.582031 24.667969 L 123.582031 24.667969 Z M 239.164062 196.195312 L 15 196.195312 L 15 39.667969 L 239.167969 39.667969 L 239.167969 196.195312 Z M 239.164062 196.195312 " style=" stroke:none;fill-rule:nonzero;fill:rgb(0%,0%,0%);fill-opacity:1;" />
<path d="M 64.671875 133.433594 L 83.289062 133.433594 L 83.289062 158.867188 L 98.289062 158.867188 L 98.289062 104.0625 L 87.222656 92.996094 L 60.738281 92.996094 L 49.671875 104.0625 L 49.671875 158.867188 L 64.671875 158.867188 Z M 66.949219 107.996094 L 81.007812 107.996094 L 83.285156 110.273438 L 83.285156 118.429688 L 64.671875 118.429688 L 64.671875 110.273438 Z M 66.949219 107.996094 " style=" stroke:none;fill-rule:nonzero;fill:rgb(0%,0%,0%);fill-opacity:1;" />
<path d="M 151.390625 147.800781 L 151.390625 129.492188 L 147.828125 125.929688 L 151.390625 122.367188 L 151.390625 104.058594 L 140.324219 92.996094 L 102.773438 92.996094 L 102.773438 158.867188 L 140.324219 158.867188 Z M 136.390625 141.589844 L 134.113281 143.867188 L 117.773438 143.867188 L 117.773438 133.429688 L 134.113281 133.429688 L 136.390625 135.707031 Z M 136.390625 116.15625 L 134.113281 118.429688 L 117.773438 118.429688 L 117.773438 107.996094 L 134.113281 107.996094 L 136.390625 110.273438 Z M 136.390625 116.15625 " style=" stroke:none;fill-rule:nonzero;fill:rgb(0%,0%,0%);fill-opacity:1;" />
<path d="M 193.425781 158.867188 L 202.296875 149.996094 L 191.691406 139.390625 L 187.214844 143.867188 L 173.15625 143.867188 L 170.878906 141.589844 L 170.878906 110.273438 L 173.15625 107.996094 L 187.214844 107.996094 L 191.691406 112.472656 L 202.296875 101.863281 L 193.425781 92.996094 L 166.945312 92.996094 L 155.878906 104.0625 L 155.878906 147.800781 L 166.945312 158.867188 Z M 193.425781 158.867188 " style=" stroke:none;fill-rule:nonzero;fill:rgb(0%,0%,0%);fill-opacity:1;" />
<path d="M 165.753906 442.996094 L 388.429688 442.996094 L 388.429688 162.066406 C 388.429688 72.703125 315.726562 0 226.363281 0 C 212.9375 0 199.589844 1.644531 186.6875 4.894531 L 190.347656 19.441406 C 202.054688 16.496094 214.171875 15 226.363281 15 C 307.453125 15 373.429688 80.976562 373.429688 162.066406 L 373.429688 427.996094 L 171.964844 427.996094 L 79.296875 335.328125 L 79.296875 223.695312 L 64.296875 223.695312 L 64.296875 512 L 267.859375 512 L 267.859375 455.496094 L 252.859375 455.496094 L 252.859375 497 L 79.296875 497 L 79.296875 356.539062 Z M 165.753906 442.996094 " style=" stroke:none;fill-rule:nonzero;fill:rgb(0%,0%,0%);fill-opacity:1;" />
<path d="M 104.296875 487.332031 L 89.296875 487.332031 L 89.296875 444.332031 L 104.296875 444.332031 Z M 104.296875 434.332031 L 89.296875 434.332031 L 89.296875 419.332031 L 104.296875 419.332031 Z M 104.296875 409.332031 L 89.296875 409.332031 L 89.296875 394.332031 L 104.296875 394.332031 Z M 104.296875 409.332031 " style=" stroke:none;fill-rule:nonzero;fill:rgb(100%,100%,100%);fill-opacity:1;" />
<path d="M 363.429688 162.066406 L 348.429688 162.066406 C 348.429688 126.75 333.078125 93.15625 306.316406 69.90625 L 316.15625 58.582031 C 346.199219 84.683594 363.429688 122.402344 363.429688 162.066406 Z M 298.972656 64.003906 C 295.199219 61.203125 291.226562 58.59375 287.164062 56.25 L 294.660156 43.257812 C 299.222656 45.890625 303.683594 48.816406 307.914062 51.960938 Z M 278.832031 51.859375 C 274.589844 49.835938 270.191406 48.039062 265.757812 46.519531 L 270.609375 32.328125 C 275.59375 34.03125 280.535156 36.050781 285.300781 38.328125 Z M 278.832031 51.859375 " style=" stroke:none;fill-rule:nonzero;fill:rgb(100%,100%,100%);fill-opacity:1;" />
<path d="M 120.28125 86.066406 L 120.265625 71.066406 L 135.265625 71.054688 L 135.28125 86.054688 Z M 145.28125 86.046875 L 145.265625 71.046875 L 160.265625 71.03125 L 160.28125 86.03125 Z M 170.28125 86.023438 L 170.265625 71.023438 L 204.425781 70.992188 L 204.441406 85.992188 Z M 170.28125 86.023438 " style=" stroke:none;fill-rule:nonzero;fill:rgb(100%,100%,100%);fill-opacity:1;" />
</g>
</svg>