<svg id="Capa_1" enable-background="new 0 0 512 512" height="512" viewBox="0 0 512 512" width="512" xmlns="http://www.w3.org/2000/svg"><path d="m52.451 462.197c-32.178-25.573-52.451-62.815-52.451-104.287 0-77.115 70.067-139.628 156.5-139.628s156.5 62.513 156.5 139.628-70.067 139.628-156.5 139.628c-15.446 0-30.364-2.006-44.458-5.725-22.244 16.914-52.938 23.592-83.318 18.54-8.728-1.452-11.501-12.539-4.449-17.884 9.275-7.031 20.202-17.167 28.176-30.272z" fill="#ffe0ba"/><path d="m156.5 218.281v279.257c86.433 0 156.5-62.514 156.5-139.628s-70.067-139.629-156.5-139.629z" fill="#ffd396"/><path d="m442.015 325.457c42.935-34.122 69.985-83.814 69.985-139.151 0-102.894-93.491-186.306-208.818-186.306s-208.819 83.412-208.819 186.306 93.491 186.306 208.818 186.306c20.609 0 40.515-2.677 59.32-7.639 31.683 24.092 76.213 32.62 119.367 23.159 8.548-1.874 10.838-12.973 3.66-17.979-13.374-9.329-31.118-24.324-43.513-44.696z" fill="#ffb554"/><path d="m485.529 370.153c-13.376-9.329-31.12-24.324-43.514-44.696 42.935-34.122 69.985-83.814 69.985-139.151 0-102.894-93.491-186.306-208.818-186.306v372.613c20.609 0 40.515-2.677 59.32-7.639 31.683 24.092 76.213 32.62 119.367 23.159 8.549-1.875 10.838-12.973 3.66-17.98z" fill="#ff9e21"/><path d="m254.697 171.841c-8.284 0-15-6.716-15-15v-37.7c0-8.284 6.716-15 15-15s15 6.716 15 15v37.7c0 8.284-6.716 15-15 15z" fill="#ed8700"/><path d="m345.178 172.312c-8.284 0-15-6.716-15-15v-37.7c0-8.284 6.716-15 15-15s15 6.716 15 15v37.7c0 8.284-6.716 15-15 15z" fill="#a86100"/><path d="m302.765 292.952c-34.685 0-67.417-11.213-92.168-31.572-25.602-21.06-39.701-49.315-39.701-79.563 0-8.284 6.716-15 15-15s15 6.716 15 15c0 44.738 45.699 81.135 101.87 81.135 56.172 0 101.87-36.397 101.87-81.135 0-8.284 6.716-15 15-15s15 6.716 15 15c0 30.247-14.1 58.502-39.701 79.563-24.753 20.359-57.486 31.572-92.17 31.572z" fill="#ed8700"/><path d="m419.635 166.817c-8.284 0-15 6.716-15 15 0 44.738-45.698 81.135-101.87 81.135v30c34.685 0 67.417-11.213 92.169-31.572 25.602-21.06 39.701-49.315 39.701-79.563 0-8.284-6.716-15-15-15z" fill="#a86100"/></svg>