<svg id="Layer_5" enable-background="new 0 0 64 64" height="512" viewBox="0 0 64 64" width="512" xmlns="http://www.w3.org/2000/svg"><g><path d="m49.549 24.296-.549-.36-.549.36c-2.517 1.651-5.452 2.583-8.487 2.693l-.964.035v6.56c0 6.514 3.619 12.371 9.456 15.29.172.084.355.126.544.126.195 0 .391-.047.553-.131 5.827-2.913 9.447-8.77 9.447-15.285v-6.56l-.964-.035c-3.035-.111-5.971-1.042-8.487-2.693zm7.451 9.288c0 5.621-3.052 10.686-8.001 13.32-4.944-2.628-7.999-7.696-7.999-13.32v-4.656c2.84-.25 5.577-1.144 8-2.614 2.423 1.47 5.16 2.364 8 2.614z"/><path d="m45 33v6c0 2.206 1.794 4 4 4s4-1.794 4-4v-6c0-2.206-1.794-4-4-4s-4 1.794-4 4zm4 8c-1.103 0-2-.897-2-2v-2h4v2c0 1.103-.897 2-2 2zm2-8v2h-4v-2c0-1.103.897-2 2-2s2 .897 2 2z"/><path d="m47 9h-34v8h34zm-2 6h-30v-4h30z"/><path d="m13 19h2v2h-2z"/><path d="m17 19h16v2h-16z"/><path d="m13 23h20v2h-20z"/><path d="m13 27h20v2h-20z"/><path d="m13 31h19v2h-19z"/><path d="m63 23h-4v-22h-58v40h35.337c.572 1.533 1.324 2.984 2.231 4.335l-2.954 13.297 5.83-2.332 2.673 6.683 3.206-10.265c.54.182 1.108.282 1.677.282s1.137-.1 1.677-.282l3.206 10.265 2.673-6.683 5.83 2.332-2.954-13.297c2.283-3.401 3.568-7.457 3.568-11.752zm-60 16v-36h54v19.88c-.68-.089-1.35-.22-2-.415v-13.465h-1c-1.654 0-3-1.346-3-3v-1h-42v1c0 1.654-1.346 3-3 3h-1v24h1c1.654 0 3 1.346 3 3v1h26.284c.109.677.25 1.344.423 2zm32.049-4h-24.15c-.398-1.956-1.943-3.501-3.899-3.899v-20.202c1.956-.398 3.501-1.943 3.899-3.899h38.201c.398 1.956 1.943 3.501 3.899 3.899v10.76c-1.201-.602-2.315-1.389-3.293-2.366l-.706-.707-.707.707c-2.391 2.391-5.569 3.707-8.95 3.707h-4.343v10.583c0 .476.018.948.049 1.417zm8.835 22.018-1.327-3.318-4.17 1.668 1.769-7.959c1.505 1.729 3.301 3.226 5.352 4.412zm15.729-1.65-4.17-1.668-1.327 3.317-1.624-5.196c2.051-1.186 3.847-2.684 5.352-4.412zm1.387-21.785c0 7.277-4.044 13.82-10.553 17.075-.895.447-2 .447-2.895 0-6.508-3.254-10.552-9.797-10.552-17.075v-8.583h2.343c3.59 0 6.983-1.282 9.657-3.63 2.674 2.348 6.067 3.63 9.657 3.63h2.343z"/></g></svg>