<?xml version="1.0"?>
<svg xmlns="http://www.w3.org/2000/svg" xmlns:xlink="http://www.w3.org/1999/xlink" viewBox="0 0 512 512" width="512" height="512"><defs><linearGradient id="New_Gradient_Swatch_10" x1="119.833" y1="418.722" x2="442.722" y2="95.833" gradientUnits="userSpaceOnUse"><stop offset="0.015" stop-color="#bfe8e5"/><stop offset="1" stop-color="#dff4f2"/></linearGradient><linearGradient id="New_Gradient_Swatch_5" x1="169.48" y1="281.48" x2="343.52" y2="107.441" gradientUnits="userSpaceOnUse"><stop offset="0.011" stop-color="#f8c73f"/><stop offset="1" stop-color="#fada7f"/></linearGradient><linearGradient id="New_Gradient_Swatch_3" x1="210.686" y1="391.941" x2="301.314" y2="301.314" gradientUnits="userSpaceOnUse"><stop offset="0.011" stop-color="#606082"/><stop offset="1" stop-color="#83839e"/></linearGradient></defs><g id="_12-idea" data-name="12-idea"><path d="M496,232C496,112.707,388.548,16,256,16S16,112.707,16,232,123.452,448,256,448a265.179,265.179,0,0,0,65.424-8.126L424,488l-34.556-76.45C453.7,372.792,496,306.845,496,232Z" style="fill:url(#New_Gradient_Swatch_10)"/><path d="M361,168a104,104,0,0,0-208,0c0,42.877,24.816,77.93,47,111.6,8.858,13.444,16,48.4,16,48.4h80s7.118-34.39,16-47.568C334.98,246.337,361,211.645,361,168Z" style="fill:url(#New_Gradient_Swatch_5)"/><path d="M200,312H312a0,0,0,0,1,0,0v56a32,32,0,0,1-32,32H232a32,32,0,0,1-32-32V312A0,0,0,0,1,200,312Z" style="fill:url(#New_Gradient_Swatch_3)"/><path d="M508,232c0-61.142-26.375-118.552-74.267-161.655C386.2,27.562,323.076,4,256,4S125.8,27.562,78.267,70.345C30.375,113.448,4,170.858,4,232,2.161,387.683,175.051,491,320.168,452.54L418.9,498.864c9.744,4.85,20.751-5.956,16.032-15.807l-30.258-66.94C469.578,373.193,508,305.1,508,232ZM383.246,401.275a12,12,0,0,0-4.737,15.218l21.174,46.843L326.521,429.01a12,12,0,0,0-8.056-.765C181.958,466.729,24.637,366.89,28,232,28,119.514,130.28,28,256,28s228,91.514,228,204C484,299.939,446.335,363.22,383.246,401.275Z"/><path d="M257,52A116.132,116.132,0,0,0,141,168c0,44.156,24.094,80.577,45.352,112.711,4.521,6.595,6.564,9.958,9.9,19.893A12,12,0,0,0,188,312v56a44.049,44.049,0,0,0,44,44h48a44.049,44.049,0,0,0,44-44V312a12,12,0,0,0-8.1-11.339c3.5-10.412,6.193-13.848,11.276-21.231C349.705,246.3,373,212.033,373,168A116.132,116.132,0,0,0,257,52Zm43,272v24H212V324Zm-20,64H232a20.034,20.034,0,0,1-19.6-16H299.6A20.033,20.033,0,0,1,280,388Zm27.329-122.064C299.667,276.689,295.987,283.3,290.86,300H268V220h28a12,12,0,0,0,11.767-9.646l8-40a12,12,0,1,0-23.534-4.708L286.163,196H226.6l-6.892-30.634a12,12,0,0,0-23.416,5.268l9,40A12,12,0,0,0,217,220h27v80H221.259c-4.855-15.909-8.128-22.827-14.891-32.531C186.03,236.726,165,204.937,165,168a92,92,0,0,1,184,0C349,204.647,327.816,235.8,307.329,265.936Z"/><path d="M432,221H416a12,12,0,0,0,0,24h16a12,12,0,0,0,0-24Z"/><path d="M402.649,181a11.955,11.955,0,0,0,4.793-1l14.664-6.4a12,12,0,1,0-9.6-22L397.843,158a12,12,0,0,0,4.806,23Z"/><path d="M422.106,292.4,407.442,286a12,12,0,0,0-9.6,22l14.664,6.4a12,12,0,1,0,9.6-22Z"/><path d="M108,233a12,12,0,0,0-12-12H80a12,12,0,0,0,0,24H96A12,12,0,0,0,108,233Z"/><path d="M114.157,158l-14.664-6.4a12,12,0,1,0-9.6,22l14.664,6.4a12,12,0,0,0,9.6-22Z"/><path d="M104.558,286l-14.664,6.4a12,12,0,1,0,9.6,22l14.664-6.4a12,12,0,0,0-9.6-22Z"/></g></svg>
