<svg xmlns="http://www.w3.org/2000/svg" height="464pt" version="1.1" viewBox="-48 0 464 464" width="464pt">
<g id="surface1">
<path d="M 16 464 L 352 464 C 360.835938 464 368 456.835938 368 448 L 368 16 C 368 7.164062 360.835938 0 352 0 L 104 0 L 104 80 C 104 88.835938 96.835938 96 88 96 L 0 96 L 0 448 C 0 456.835938 7.164062 464 16 464 Z M 258.886719 171.777344 L 321.113281 234 L 258.886719 296.222656 L 321.113281 234 Z M 232 148.863281 L 136 315.136719 Z M 109.113281 171.777344 L 46.886719 234 L 109.113281 296.222656 L 46.886719 234 Z M 109.113281 171.777344 " style=" stroke:none;fill-rule:nonzero;fill:rgb(100%,91.372549%,80%);fill-opacity:1;" />
<path d="M 104 80 L 104 0 L 0 96 L 88 96 C 96.835938 96 104 88.835938 104 80 Z M 104 80 " style=" stroke:none;fill-rule:nonzero;fill:rgb(100%,66.27451%,57.647059%);fill-opacity:1;" />
<path d="M 104 464 L 352 464 C 360.835938 464 368 456.835938 368 448 L 368 216.726562 C 324.300781 336.425781 226.296875 428.21875 104 464 Z M 104 464 " style=" stroke:none;fill-rule:nonzero;fill:rgb(100%,88.627451%,74.117647%);fill-opacity:1;" />
<path d="M 136 323.136719 C 133.144531 323.132812 130.503906 321.605469 129.078125 319.132812 C 127.652344 316.65625 127.652344 313.609375 129.078125 311.136719 L 225.078125 144.863281 C 226.5 142.367188 229.144531 140.824219 232.015625 140.816406 C 234.886719 140.8125 237.542969 142.34375 238.972656 144.832031 C 240.402344 147.324219 240.386719 150.386719 238.9375 152.863281 L 142.9375 319.136719 C 141.503906 321.613281 138.859375 323.140625 136 323.136719 Z M 136 323.136719 " style=" stroke:none;fill-rule:nonzero;fill:rgb(92.941176%,10.980392%,14.117647%);fill-opacity:1;" />
<path d="M 109.113281 304.222656 C 106.988281 304.230469 104.953125 303.386719 103.457031 301.878906 L 41.230469 239.65625 C 38.109375 236.53125 38.109375 231.46875 41.230469 228.34375 L 103.457031 166.121094 C 106.59375 163.089844 111.585938 163.132812 114.671875 166.21875 C 117.757812 169.304688 117.800781 174.292969 114.769531 177.433594 L 58.199219 234 L 114.769531 290.566406 C 117.054688 292.855469 117.738281 296.296875 116.5 299.285156 C 115.261719 302.273438 112.347656 304.222656 109.113281 304.222656 Z M 109.113281 304.222656 " style=" stroke:none;fill-rule:nonzero;fill:rgb(92.941176%,10.980392%,14.117647%);fill-opacity:1;" />
<path d="M 258.886719 304.222656 C 255.652344 304.222656 252.738281 302.273438 251.5 299.285156 C 250.261719 296.296875 250.945312 292.855469 253.230469 290.566406 L 309.800781 234 L 253.230469 177.433594 C 250.199219 174.292969 250.242188 169.304688 253.328125 166.21875 C 256.414062 163.132812 261.40625 163.089844 264.542969 166.121094 L 326.769531 228.34375 C 329.890625 231.46875 329.890625 236.53125 326.769531 239.65625 L 264.542969 301.878906 C 263.046875 303.386719 261.011719 304.230469 258.886719 304.222656 Z M 258.886719 304.222656 " style=" stroke:none;fill-rule:nonzero;fill:rgb(92.941176%,10.980392%,14.117647%);fill-opacity:1;" />
</g>
</svg>