<?xml version="1.0" encoding="iso-8859-1"?>
<!-- Generator: Adobe Illustrator 19.0.0, SVG Export Plug-In . SVG Version: 6.00 Build 0)  -->
<svg version="1.1" id="Capa_1" xmlns="http://www.w3.org/2000/svg" xmlns:xlink="http://www.w3.org/1999/xlink" x="0px" y="0px"
	 viewBox="0 0 512.007 512.007" style="enable-background:new 0 0 512.007 512.007;" xml:space="preserve">
<g>
	<g>
		<path d="M416.004,42.674H53.337C23.896,42.709,0.039,66.567,0.004,96.007v362.667c0.035,29.441,23.893,53.298,53.333,53.333
			h298.667c29.441-0.035,53.298-23.893,53.333-53.333V224.007h10.667c29.441-0.035,53.298-23.893,53.333-53.333V96.007
			C469.302,66.567,445.444,42.709,416.004,42.674z M448.004,170.674c0,17.673-14.327,32-32,32H394.67
			c-5.891,0-10.667,4.776-10.667,10.667v245.333c0,17.673-14.327,32-32,32H53.337c-17.673,0-32-14.327-32-32V96.007
			c0-17.673,14.327-32,32-32h362.667c17.673,0,32,14.327,32,32V170.674z"/>
	</g>
</g>
<g>
	<g>
		<rect x="384.004" y="128.007" width="21.333" height="85.333"/>
	</g>
</g>
<g>
	<g>
		<path d="M98.276,0.061C97.517,0.02,96.757,0,95.996,0C72.432,0.004,53.333,19.11,53.337,42.674v10.667H74.67V42.674
			c-0.035-5.867,2.377-11.484,6.656-15.499c4.253-4.04,9.982-6.15,15.84-5.835c11.739,1.26,20.528,11.346,20.171,23.147v115.52
			c0,11.782-9.551,21.333-21.333,21.333c-11.782,0-21.333-9.551-21.333-21.333V85.341H53.337v74.667
			c0,23.564,19.103,42.667,42.667,42.667s42.667-19.103,42.667-42.667V44.487C139.164,21.292,121.413,1.769,98.276,0.061z"/>
	</g>
</g>
<g>
	<g>
		<path d="M298.67,117.341H160.004v21.333H298.67c5.891,0,10.667,4.776,10.667,10.667v181.333c0,5.891-4.776,10.667-10.667,10.667
			h-192c-5.891,0-10.667-4.776-10.667-10.667V224.007H74.67v106.667c0,17.673,14.327,32,32,32h192c17.673,0,32-14.327,32-32V149.341
			C330.67,131.667,316.343,117.341,298.67,117.341z"/>
	</g>
</g>
<g>
	<g>
		<path d="M202.67,170.674c-23.564,0-42.667,19.102-42.667,42.667s19.103,42.667,42.667,42.667s42.667-19.103,42.667-42.667
			S226.234,170.674,202.67,170.674z M202.67,234.674c-11.782,0-21.333-9.551-21.333-21.333c0-11.782,9.551-21.333,21.333-21.333
			c11.782,0,21.333,9.551,21.333,21.333C224.004,225.123,214.452,234.674,202.67,234.674z"/>
	</g>
</g>
<g>
	<g>
		<path d="M213.337,245.341h-21.333c-35.332,0.035-63.965,28.668-64,64h21.333c0-23.564,19.103-42.667,42.667-42.667h21.333
			c23.564,0,42.667,19.102,42.667,42.667h21.333C277.302,274.009,248.669,245.376,213.337,245.341z"/>
	</g>
</g>
<g>
	<g>
		<path d="M480.004,0.007h-288c-17.673,0-32,14.327-32,32v21.333h21.333V32.007c0-5.891,4.776-10.667,10.667-10.667h288
			c5.891,0,10.667,4.776,10.667,10.667v394.667c0,5.891-4.776,10.667-10.667,10.667H394.67v21.333h85.333c17.673,0,32-14.327,32-32
			V32.007C512.004,14.334,497.677,0.007,480.004,0.007z"/>
	</g>
</g>
<g>
	<g>
		<rect x="394.67" y="384.007" width="64" height="21.333"/>
	</g>
</g>
<g>
	<g>
		<rect x="394.67" y="330.674" width="64" height="21.333"/>
	</g>
</g>
<g>
	<g>
		<rect x="394.67" y="277.341" width="64" height="21.333"/>
	</g>
</g>
<g>
	<g>
		<rect x="42.67" y="448.007" width="106.667" height="21.333"/>
	</g>
</g>
<g>
	<g>
		<rect x="42.67" y="405.341" width="64" height="21.333"/>
	</g>
</g>
<g>
	<g>
		<rect x="170.67" y="448.007" width="21.333" height="21.333"/>
	</g>
</g>
<g>
</g>
<g>
</g>
<g>
</g>
<g>
</g>
<g>
</g>
<g>
</g>
<g>
</g>
<g>
</g>
<g>
</g>
<g>
</g>
<g>
</g>
<g>
</g>
<g>
</g>
<g>
</g>
<g>
</g>
</svg>
