<svg height="512" viewBox="0 0 128 128" width="512" xmlns="http://www.w3.org/2000/svg"><path d="m106.986 40.073-27.447-27.446a1 1 0 0 0 -.707-.293h-51.166a3 3 0 0 0 -3 3v101.333a3 3 0 0 0 3 3h76.667a3 3 0 0 0 3-3v-75.836a1 1 0 0 0 -.347-.758z" fill="#e6e7e8"/><path d="m102.331 36.833-27.5-27.5h-51.165a2 2 0 0 0 -2 2v101.334a2 2 0 0 0 2 2h76.667a2 2 0 0 0 2-2v-75.836z" fill="#d4fbff"/><path d="m52.725 73v.054a3.1 3.1 0 0 1 -4.325 2.846l-17.455-7.565a4.446 4.446 0 0 1 -2.677-4.078v-.047a4.444 4.444 0 0 1 2.677-4.078l17.455-7.564a3.1 3.1 0 0 1 4.329 2.842v.084a3.1 3.1 0 0 1 -1.984 2.89l-15.058 5.8 15.079 5.936a3.1 3.1 0 0 1 1.959 2.88z" fill="#fa759e"/><path d="m66.514 45.583a2.877 2.877 0 0 0 -3.474 2.117l-7.674 31.712a2.881 2.881 0 0 0 2.12 3.473 2.91 2.91 0 0 0 .679.081 2.869 2.869 0 0 0 2.8-2.2l7.673-31.708a2.878 2.878 0 0 0 -2.124-3.475z" fill="#fa759e"/><path d="m93.061 68.273-17.453 7.6a3.1 3.1 0 0 1 -4.333-2.839v-.044a3.1 3.1 0 0 1 1.965-2.883l15.126-5.938-15.112-5.847a3.1 3.1 0 0 1 -1.979-2.888 3.1 3.1 0 0 1 4.325-2.844l17.448 7.528a4.445 4.445 0 0 1 2.684 4.08 4.443 4.443 0 0 1 -2.671 4.075z" fill="#fa759e"/><path d="m21.666 91v21.667a2 2 0 0 0 2 2h76.667a2 2 0 0 0 2-2v-21.667z" fill="#6dc9f7"/><path d="m23.666 12.333h54.166l-3-3h-51.166a2 2 0 0 0 -2 2v3a2 2 0 0 1 2-2z" fill="#fff"/><path d="m74.834 9.333v25.5a2 2 0 0 0 2 2h25.5z" fill="#6dc9f7"/><g fill="#3a2c60"><path d="m53.724 55.41a4.1 4.1 0 0 0 -5.724-3.759l-17.452 7.563a5.48 5.48 0 0 0 0 10.038l17.452 7.564a4.1 4.1 0 0 0 5.725-3.759v-.057a4.074 4.074 0 0 0 -2.595-3.812l-12.69-5 12.66-4.871a4.149 4.149 0 0 0 2.624-3.907zm-3.342 2.041-15.058 5.8a1 1 0 0 0 -.007 1.864l15.083 5.937a2.085 2.085 0 0 1 1.324 1.948v.054a2.1 2.1 0 0 1 -2.93 1.924l-17.451-7.561a3.48 3.48 0 0 1 0-6.368l17.451-7.563a2.136 2.136 0 1 1 1.588 3.965z"/><path d="m66.749 44.611a3.876 3.876 0 0 0 -4.681 2.857l-7.674 31.708a3.877 3.877 0 1 0 7.537 1.824l7.674-31.709a3.88 3.88 0 0 0 -2.856-4.68zm.913 4.209-7.674 31.71a1.889 1.889 0 0 1 -2.267 1.383 1.881 1.881 0 0 1 -1.383-2.266l7.674-31.709a1.868 1.868 0 0 1 2.264-1.384 1.882 1.882 0 0 1 1.384 2.266z"/><path d="m70.275 73.033a4.095 4.095 0 0 0 5.733 3.757l17.453-7.6a5.444 5.444 0 0 0 -.017-9.99l-17.444-7.528a4.1 4.1 0 1 0 -3.1 7.583l12.718 4.921-12.737 5a4.087 4.087 0 0 0 -2.606 3.857zm3.33-2 15.126-5.933a1 1 0 0 0 0-1.864l-15.115-5.846a2.085 2.085 0 0 1 -1.341-1.956 2.108 2.108 0 0 1 2.091-2.1 2.12 2.12 0 0 1 .836.176l17.449 7.528a3.444 3.444 0 0 1 .011 6.32l-17.453 7.6a2.063 2.063 0 0 1 -1.987-.169 2.133 2.133 0 0 1 .383-3.749z"/><path d="m42.77 108.182a.933.933 0 0 0 .7-.27.969.969 0 0 0 .261-.7v-3.712h5.416v3.706a.982.982 0 0 0 .254.7 1.008 1.008 0 0 0 1.373 0 .966.966 0 0 0 .263-.7v-8.806a.957.957 0 0 0 -.255-.7 1.038 1.038 0 0 0 -1.381 0 .957.957 0 0 0 -.254.7v3.54h-5.418v-3.54a.9.9 0 0 0 -.959-.96.916.916 0 0 0 -.69.263.953.953 0 0 0 -.255.7v8.806a.97.97 0 0 0 .262.7.909.909 0 0 0 .683.273z"/><path d="m53.075 99.107h2.725v8.1a.938.938 0 0 0 .263.7.963.963 0 0 0 .713.263.9.9 0 0 0 .959-.96v-8.1h2.73q.9 0 .9-.794t-.9-.8h-7.39c-.6 0-.9.265-.9.8s.299.791.9.791z"/><path d="m63.38 108.182a.815.815 0 0 0 .622-.247.916.916 0 0 0 .233-.653v-6.1l2.565 4.755a1.361 1.361 0 0 0 .389.5.831.831 0 0 0 .5.15.8.8 0 0 0 .5-.157 1.479 1.479 0 0 0 .39-.488l2.551-4.83v6.18a.925.925 0 0 0 .224.66.806.806 0 0 0 .616.24.855.855 0 0 0 .63-.24.894.894 0 0 0 .239-.66v-8.892a.957.957 0 0 0 -.254-.7.9.9 0 0 0 -.676-.263.994.994 0 0 0 -.885.645l-3.324 6.35-3.33-6.345a1.012 1.012 0 0 0 -.916-.645.874.874 0 0 0 -.667.263.974.974 0 0 0 -.247.7v8.88a.925.925 0 0 0 .224.66.806.806 0 0 0 .616.237z"/><path d="m76.04 108.092h5.234c.6 0 .9-.264.9-.8s-.3-.8-.9-.8h-4.215v-8.092a.949.949 0 0 0 -.261-.7.967.967 0 0 0 -.713-.263.9.9 0 0 0 -.96.96v8.79a.891.891 0 0 0 .239.66.914.914 0 0 0 .676.245z"/><path d="m103 36.085-27.461-27.459a1 1 0 0 0 -.707-.293h-51.165a3 3 0 0 0 -3 3v101.333a3 3 0 0 0 3 3h76.666a3 3 0 0 0 3-3v-29.916a1 1 0 0 0 -2 0v7.25h-78.666v-78.667a1 1 0 0 1 1-1h50.165v24.5a3 3 0 0 0 3 3h24.5v25.167a1 1 0 0 0 2 0v-26.169a1 1 0 0 0 -.332-.746zm-1.667 55.915v20.666a1 1 0 0 1 -1 1h-76.666a1 1 0 0 1 -1-1v-20.666zm-25.5-57.167v-23.085l24.084 24.085h-23.085a1 1 0 0 1 -1-1z"/><path d="m102.333 67a1 1 0 0 0 -1 1v9.916a1 1 0 0 0 2 0v-9.916a1 1 0 0 0 -1-1z"/></g></svg>