<svg id="_x31_-outline-expand" enable-background="new 0 0 64 64" height="512" viewBox="0 0 64 64" width="512" xmlns="http://www.w3.org/2000/svg"><path d="m49 56.5c0 1.933-4.478 3.5-10 3.5s-10-1.567-10-3.5 4.478-3.5 10-3.5 10 1.567 10 3.5" fill="#d36767"/><path d="m17 20c0 2.762 2.238 5 5 5s5-2.238 5-5-2.238-5-5-5-5 2.238-5 5" fill="#62c4c3"/><path d="m16 40.059-4 2-2.966-6.675c-.631-1.419-.384-3.075.635-4.247l5.331-6.138h17l6-6 3 3-7 7h-7v9.06l10 2 4 12-4 1-3-8-11-2-2 17.94h-5l1-19.94v-11l-4 4z" fill="#62c4c3"/><path d="m38 13v-10l11 5z" fill="#d36767"/><path d="m54 57.5v-2h-4.849c-.019-.039-.042-.075-.063-.113l3.11-.659-.415-1.957-4.504.954c-.362-.199-.754-.382-1.185-.545l.942-.599-1.072-1.688-2.479 1.576c-.492-.094-.997-.172-1.515-.234.03-.163.032-.331-.021-.492l-4-12c-.114-.34-.401-.594-.752-.664l-9.197-1.839v-7.24h6c.266 0 .52-.106.707-.293l7-7c.391-.391.391-1.024 0-1.414l-2.707-2.707v-4.943l10.414-4.733c.357-.162.586-.518.586-.91 0-.393-.229-.748-.586-.91l-11-5c-.309-.143-.67-.115-.955.069-.286.185-.459.501-.459.841v15.586l-5.414 5.414h-5.126c.954-1.063 1.54-2.463 1.54-4 0-3.309-2.691-6-6-6-3.308 0-6 2.691-6 6 0 1.537.586 2.937 1.54 4h-2.54c-.29 0-.565.126-.755.345l-5.331 6.136c-1.267 1.459-1.579 3.543-.794 5.31l2.966 6.675c.112.249.32.442.576.535.256.092.54.075.786-.047l3.544-1.773-.991 19.769c-.013.273.086.54.275.739.188.199.451.311.724.311h5c.51 0 .938-.383.994-.89l1.881-16.875 9.388 1.707 2.38 6.345c-.384.052-.76.111-1.127.182l-2.48-1.576-1.072 1.688.943.599c-.431.163-.824.346-1.185.545l-4.505-.954-.414 1.957 3.109.659c-.02.038-.044.074-.062.113h-4.85v2h4.85c.018.039.042.075.062.113l-3.109.658.414 1.957 4.505-.954c.361.199.754.383 1.185.546l-.943.599 1.072 1.687 2.48-1.575c1.102.21 2.284.341 3.484.387v1.082h2v-1.082c1.2-.046 2.382-.177 3.485-.387l2.479 1.575 1.072-1.687-.942-.599c.431-.163.823-.347 1.185-.546l4.504.954.415-1.957-3.11-.658c.021-.038.044-.074.063-.113zm-23.375-1c0-.86 3.18-2.438 8.375-2.438 5.196 0 8.375 1.578 8.375 2.438 0 .859-3.179 2.437-8.375 2.437-5.195 0-8.375-1.578-8.375-2.437m8.375-51.947 7.583 3.447-7.583 3.447zm-21 15.447c0-2.206 1.794-4 4-4s4 1.794 4 4c0 1.034-.404 1.97-1.05 2.68-.573-.352-.95-.978-.95-1.68h-2c0 1.078.442 2.077 1.164 2.806-.371.115-.756.194-1.164.194-2.206 0-4-1.794-4-4m-3.783 14.257 1.783-1.784.001 5.352zm19.962 9.819-11-2c-.275-.054-.553.016-.776.182-.222.165-.366.415-.397.691l-1.9 17.051h-3.054l.948-18.941v-11c0-.404-.243-.769-.617-.923-.374-.157-.804-.07-1.09.216l-4 4c-.304.305-.38.77-.187 1.155l2.552 5.105-2.168 1.085-2.541-5.719c-.472-1.059-.286-2.31.475-3.185l5.032-5.793h16.544c.266 0 .52-.106.707-.293l5.293-5.293 1.586 1.586-6 6h-6.586c-.552 0-1 .447-1 1v9.059c0 .477.337.887.804.981l9.431 1.887 3.475 10.424-2.087.522-2.686-7.165c-.124-.329-.411-.57-.758-.632" fill="#3a4249"/></svg>